HIERARCHY
ROOT root
{
	OFFSET	0	13.1	24.9
	CHANNELS 6  Xposition Yposition Zposition Xrotation Yrotation Zrotation
	JOINT spine_1
	{
		OFFSET	0	9.99999	0
		CHANNELS 3  Xrotation Yrotation Zrotation
		JOINT spine_2
		{
			OFFSET	0	112	-10
			CHANNELS 3  Xrotation Yrotation Zrotation
			JOINT spine_3
			{
				OFFSET	0	206.5	19.3
				CHANNELS 3  Xrotation Yrotation Zrotation
				JOINT spine_4
				{
					OFFSET	0	110.4	14.6
					CHANNELS 3  Xrotation Yrotation Zrotation
					JOINT neck_1
					{
						OFFSET	0	71.8	-50.3
						CHANNELS 3  Xrotation Yrotation Zrotation
						JOINT neck_2
						{
							OFFSET	0	86.2	-25.8
							CHANNELS 3  Xrotation Yrotation Zrotation
							JOINT head_ee
							{
								OFFSET	0	179.8	-8.7
								CHANNELS 3  Xrotation Yrotation Zrotation
								End Site
								{
									OFFSET	1	0	0
								}
							}
						}
					}
					JOINT left_clavicle
					{
						OFFSET	-43.2	22.4	-70.8
						CHANNELS 3  Xrotation Yrotation Zrotation
						JOINT left_shoulder
						{
							OFFSET	-93.9	-5.79999	48.7
							CHANNELS 3  Xrotation Yrotation Zrotation
							JOINT left_elbow
							{
								OFFSET	-291.4	-30.8	15.2
								CHANNELS 3  Xrotation Yrotation Zrotation
								JOINT left_lowarm_twist
								{
									OFFSET	-110.7	-3.89999	13.6
									CHANNELS 3  Xrotation Yrotation Zrotation
									JOINT left_hand
									{
										OFFSET	-110.7	-3.89999	13.6
										CHANNELS 3  Xrotation Yrotation Zrotation
										JOINT left_ee
										{
											OFFSET	-80.8	-5.10001	12.1
											CHANNELS 3  Xrotation Yrotation Zrotation
											End Site
											{
												OFFSET	1	0	0
											}
										}
									}
								}
							}
						}
					}
					JOINT right_clavicle
					{
						OFFSET	43.2	22.4	-70.8
						CHANNELS 3  Xrotation Yrotation Zrotation
						JOINT right_shoulder
						{
							OFFSET	93.9	-5.79999	48.7
							CHANNELS 3  Xrotation Yrotation Zrotation
							JOINT right_elbow
							{
								OFFSET	291.4	-30.8	15.2
								CHANNELS 3  Xrotation Yrotation Zrotation
								JOINT right_lowarm_twist
								{
									OFFSET	110.7	-3.89999	13.6
									CHANNELS 3  Xrotation Yrotation Zrotation
									JOINT right_hand
									{
										OFFSET	110.7	-3.89999	13.6
										CHANNELS 3  Xrotation Yrotation Zrotation
										JOINT right_ee
										{
											OFFSET	80.8	-5.10001	12.1
											CHANNELS 3  Xrotation Yrotation Zrotation
											End Site
											{
												OFFSET	1	0	0
											}
										}
									}
								}
							}
						}
					}
				}
			}
		}
	}
	JOINT left_hip
	{
		OFFSET	-82.8	-127.5	0.300001
		CHANNELS 3  Xrotation Yrotation Zrotation
		JOINT left_knee
		{
			OFFSET	-28.2	-396.7	2.2
			CHANNELS 3  Xrotation Yrotation Zrotation
			JOINT left_ankle
			{
				OFFSET	-11.7	-411.3	35.4
				CHANNELS 3  Xrotation Yrotation Zrotation
				JOINT left_toes
				{
					OFFSET	0	-60	-88.6
					CHANNELS 3  Xrotation Yrotation Zrotation
					JOINT left_foot_ee
					{
						OFFSET	-22.5	-16.5	-42.2
						CHANNELS 3  Xrotation Yrotation Zrotation
						End Site
						{
							OFFSET	1	0	0
						}
					}
				}
			}
		}
	}
	JOINT right_hip
	{
		OFFSET	82.8	-127.5	0.300001
		CHANNELS 3  Xrotation Yrotation Zrotation
		JOINT right_knee
		{
			OFFSET	28.2	-396.7	2.2
			CHANNELS 3  Xrotation Yrotation Zrotation
			JOINT right_ankle
			{
				OFFSET	11.7	-411.3	35.4
				CHANNELS 3  Xrotation Yrotation Zrotation
				JOINT right_toes
				{
					OFFSET	0	-60	-88.6
					CHANNELS 3  Xrotation Yrotation Zrotation
					JOINT right_foot_ee
					{
						OFFSET	22.5	-16.5	-42.2
						CHANNELS 3  Xrotation Yrotation Zrotation
						End Site
						{
							OFFSET	1	0	0
						}
					}
				}
			}
		}
	}
}
MOTION
Frames: 9
Frame Time: 0.02
3574.42 741.953 -1474.73 -32.7784043722 70.1150329015 31.3140631106 3.4597 0.571374 0.371148 3.45961 0.546599 0.406754 3.46355 0.479062 0.484478 3.46364 0.549564 0.402739 -12.0318 14.5715 3.60365 -12.3686 25.3618 7.68826 -0.0 0.0 -0.0 2.56106 17.0135 5.96743 -12.1728 -21.0702 61.1126 1.87909 -42.9445 0.739201 -28.8114 -1.84726 3.14695 -1.16538 11.0316 -2.86214 -0.0 0.0 -0.0 8.96833 9.33365 -17.6055 -16.0801 6.51875 -63.5643 0.237431 6.70825 -0.0139153 10.916 -0.254862 1.36903 1.58354 24.1887 -0.0815104 0.0 0.0 0.0 11.5867 -19.1599 2.15114 -11.0399 0.294813 1.66599 38.0732 26.3216 -5.0216 -20.1975 0.0 0.0 -0.0 0.0 -0.0 26.8992 7.40357 -2.04156 -20.6686 -0.287092 -3.14159 33.0888 -13.5319 4.24758 -7.8945 0.0 0.0 0.0 0.0 0.0 
3568.03662259 740.098 -1475.74818112 -34.1054543035 70.617257037 32.4545887658 3.59718 0.486564 0.515229 3.59721 0.452793 0.545145 3.60152 0.366934 0.60627 3.6013 0.458077 0.540713 -12.1583 14.4985 3.34222 -12.5113 25.4071 7.44969 -0.0 0.0 -0.0 2.42749 17.2084 5.76923 -12.3883 -20.5887 61.1617 1.88641 -43.0556 0.744191 -28.8316 -1.84909 3.14879 -1.25943 11.2725 -3.35255 -0.0 0.0 -0.0 8.91961 9.61975 -17.495 -15.6272 6.63911 -63.5277 0.250469 7.07299 -0.0154795 10.807 -0.253614 1.35516 1.58853 24.1877 -0.11442 0.0 0.0 0.0 11.0277 -18.6081 2.49885 -10.9789 0.294072 1.65666 38.6922 26.1758 -5.07889 -20.0896 0.0 0.0 -0.0 0.0 -0.0 25.9171 6.69193 -1.51052 -19.0427 -0.305802 -2.89282 33.6883 -12.4394 4.29859 -7.72714 0.0 0.0 0.0 0.0 0.0 
3568.04301583 740.098 -1475.78748421 -33.5514787324 70.3240537783 31.8668003198 3.59718 0.486564 0.515229 3.59721 0.452793 0.545145 3.60152 0.366934 0.60627 3.6013 0.458077 0.540713 -12.1583 14.4985 3.34222 -12.5113 25.4071 7.44969 -0.0 0.0 -0.0 2.42749 17.2084 5.76923 -12.3883 -20.5887 61.1617 1.88641 -43.0556 0.744191 -28.8316 -1.84909 3.14879 -1.25943 11.2725 -3.35255 -0.0 0.0 -0.0 8.91961 9.61975 -17.495 -15.6272 6.63911 -63.5277 0.250469 7.07299 -0.0154795 10.807 -0.253614 1.35516 1.58853 24.1877 -0.11442 0.0 0.0 0.0 11.0277 -18.6081 2.49885 -10.9789 0.294072 1.65666 38.6922 26.1758 -5.07889 -20.0896 0.0 0.0 -0.0 0.0 -0.0 25.9171 6.69193 -1.51052 -19.0427 -0.305802 -2.89282 33.6883 -12.4394 4.29859 -7.72714 0.0 0.0 0.0 0.0 0.0 
3563.29944873 737.407 -1477.63204058 -32.8149675866 70.1983369484 30.8676316876 3.70653 0.392637 0.583672 3.70664 0.354702 0.607473 3.71036 0.26192 0.652865 3.70995 0.361739 0.603309 -12.2781 14.913 4.25507 -12.6268 25.6366 8.4668 -0.0 0.0 -0.0 2.36688 17.384 5.68417 -12.6679 -19.7588 61.4163 1.91487 -43.4835 0.763695 -28.1903 -1.79146 3.09014 -1.42136 11.462 -4.29682 -0.0 0.0 -0.0 9.16733 10.4014 -18.0134 -15.5113 6.6652 -63.674 0.262937 7.42125 -0.0170523 10.6234 -0.251453 1.33181 1.53777 23.8678 0.0686216 0.0 0.0 0.0 11.2445 -14.2058 2.61437 -11.3961 0.298946 1.72049 38.3243 24.2596 -4.98142 -20.1984 0.0 0.0 -0.0 0.0 -0.0 24.3825 3.0447 0.0035974 -17.503 -0.317005 -2.65687 31.6323 -2.99977 4.06542 -9.87086 0.0 0.0 0.0 0.0 0.0 
3563.33567943 737.407 -1477.76748869 -31.7939958178 69.6075097808 29.7804825339 3.70653 0.392637 0.583672 3.70664 0.354702 0.607473 3.71036 0.26192 0.652865 3.70995 0.361739 0.603309 -12.2781 14.913 4.25507 -12.6268 25.6366 8.4668 -0.0 0.0 -0.0 2.36688 17.384 5.68417 -12.6679 -19.7588 61.4163 1.91487 -43.4835 0.763695 -28.1903 -1.79146 3.09014 -1.42136 11.462 -4.29682 -0.0 0.0 -0.0 9.16733 10.4014 -18.0134 -15.5113 6.6652 -63.674 0.262937 7.42125 -0.0170523 10.6234 -0.251453 1.33181 1.53777 23.8678 0.0686216 0.0 0.0 0.0 11.2445 -14.2058 2.61437 -11.3961 0.298946 1.72049 38.3243 24.2596 -4.98142 -20.1984 0.0 0.0 -0.0 0.0 -0.0 24.3825 3.0447 0.0035974 -17.503 -0.317005 -2.65687 31.6323 -2.99977 4.06542 -9.87086 0.0 0.0 0.0 0.0 0.0 
3563.39367941 737.407 -1477.97172088 -30.359110297 68.7009073079 28.2451524971 3.70653 0.392637 0.583672 3.70664 0.354702 0.607473 3.71036 0.26192 0.652865 3.70995 0.361739 0.603309 -12.2781 14.913 4.25507 -12.6268 25.6366 8.4668 -0.0 0.0 -0.0 2.36688 17.384 5.68417 -12.6679 -19.7588 61.4163 1.91487 -43.4835 0.763695 -28.1903 -1.79146 3.09014 -1.42136 11.462 -4.29682 -0.0 0.0 -0.0 9.16733 10.4014 -18.0134 -15.5113 6.6652 -63.674 0.262937 7.42125 -0.0170523 10.6234 -0.251453 1.33181 1.53777 23.8678 0.0686216 0.0 0.0 0.0 11.2445 -14.2058 2.61437 -11.3961 0.298946 1.72049 38.3243 24.2596 -4.98142 -20.1984 0.0 0.0 -0.0 0.0 -0.0 24.3825 3.0447 0.0035974 -17.503 -0.317005 -2.65687 31.6323 -2.99977 4.06542 -9.87086 0.0 0.0 0.0 0.0 0.0 
3563.46180732 737.407 -1478.1950416 -28.920172363 67.6891322817 26.6954037154 3.70653 0.392637 0.583672 3.70664 0.354702 0.607473 3.71036 0.26192 0.652865 3.70995 0.361739 0.603309 -12.2781 14.913 4.25507 -12.6268 25.6366 8.4668 -0.0 0.0 -0.0 2.36688 17.384 5.68417 -12.6679 -19.7588 61.4163 1.91487 -43.4835 0.763695 -28.1903 -1.79146 3.09014 -1.42136 11.462 -4.29682 -0.0 0.0 -0.0 9.16733 10.4014 -18.0134 -15.5113 6.6652 -63.674 0.262937 7.42125 -0.0170523 10.6234 -0.251453 1.33181 1.53777 23.8678 0.0686216 0.0 0.0 0.0 11.2445 -14.2058 2.61437 -11.3961 0.298946 1.72049 38.3243 24.2596 -4.98142 -20.1984 0.0 0.0 -0.0 0.0 -0.0 24.3825 3.0447 0.0035974 -17.503 -0.317005 -2.65687 31.6323 -2.99977 4.06542 -9.87086 0.0 0.0 0.0 0.0 0.0 
3563.57839695 737.407 -1478.54420284 -26.9077715688 66.0671533048 24.5074909948 3.70653 0.392637 0.583672 3.70664 0.354702 0.607473 3.71036 0.26192 0.652865 3.70995 0.361739 0.603309 -12.2781 14.913 4.25507 -12.6268 25.6366 8.4668 -0.0 0.0 -0.0 2.36688 17.384 5.68417 -12.6679 -19.7588 61.4163 1.91487 -43.4835 0.763695 -28.1903 -1.79146 3.09014 -1.42136 11.462 -4.29682 -0.0 0.0 -0.0 9.16733 10.4014 -18.0134 -15.5113 6.6652 -63.674 0.262937 7.42125 -0.0170523 10.6234 -0.251453 1.33181 1.53777 23.8678 0.0686216 0.0 0.0 0.0 11.2445 -14.2058 2.61437 -11.3961 0.298946 1.72049 38.3243 24.2596 -4.98142 -20.1984 0.0 0.0 -0.0 0.0 -0.0 24.3825 3.0447 0.0035974 -17.503 -0.317005 -2.65687 31.6323 -2.99977 4.06542 -9.87086 0.0 0.0 0.0 0.0 0.0 
3560.09620928 738.7 -1485.27047054 -28.3125863979 66.7569985368 25.5844989742 3.71261 0.373073 0.583433 3.71274 0.335192 0.605989 3.71623 0.242903 0.648516 3.71581 0.342274 0.602018 -12.8053 14.9082 3.75656 -13.2204 26.0202 8.12886 -0.0 0.0 -0.0 2.2193 16.7986 5.42396 -12.0237 -19.451 61.6775 1.85299 -42.5451 0.721481 -27.6779 -1.74589 3.04283 -1.07462 10.7777 -2.39693 -0.0 0.0 -0.0 9.29925 10.7651 -18.2915 -15.7132 6.66298 -63.8836 0.297145 8.37382 -0.0217527 10.1337 -0.245322 1.26956 1.411 22.5049 0.274573 0.0 0.0 0.0 11.1678 -16.2929 2.76654 -11.1193 0.295764 1.67815 38.1724 26.2107 -5.0279 -19.6334 0.0 0.0 -0.0 0.0 -0.0 23.855 -0.369494 -0.422705 -14.4974 -0.320592 -2.19578 29.2194 -4.16424 3.80648 -9.79059 0.0 0.0 0.0 0.0 0.0 
